{
  "source": "C:\\Users\\Peter\\Desktop\\stuff\\MIUN\\quantitative_research\\video_compression\\videos\\BVI-HD\\BVI-HD_CDVL_videos\\ORIG\\TreeTrunk_1920x1080_50fps.mp4",
  "output": "C:\\Users\\Peter\\Desktop\\stuff\\MIUN\\quantitative_research\\video_compression\\compressed_videos\\BVI-HD\\vp9\\2\\TreeTrunk_1920x1080_50fps_vp9.webm",
  "codec": "vp9",
  "ok": "Input #0, mov,mp4,m4a,3gp,3g2,mj2, from 'C:\\Users\\Peter\\Desktop\\stuff\\MIUN\\quantitative_research\\video_compression\\videos\\BVI-HD\\BVI-HD_CDVL_videos\\ORIG\\TreeTrunk_1920x1080_50fps.mp4':\n  Metadata:\n    major_brand     : isom\n    minor_version   : 512\n    compatible_brands: isomiso2avc1mp41\n    encoder         : Lavf54.28.101\n  Duration: 00:00:05.00, start: 0.000000, bitrate: 622415 kb/s\n  Stream #0:0[0x1](und): Video: h264 (High 4:4:4 Predictive) (avc1 / 0x31637661), yuv420p(progressive), 1920x1080, 622410 kb/s, 50 fps, 50 tbr, 50 tbn (default)\n    Metadata:\n      handler_name    : VideoHandler\n      vendor_id       : [0][0][0][0]\n[out#0/webm @ 000002ab62d7f040] Codec AVOption b:a (set bitrate (in bits/s)) has not been used for any stream. The most likely reason is either wrong type (e.g. a video option with no video streams) or that it is a private option of some decoder which was not actually used for any stream.\nStream mapping:\n  Stream #0:0 -> #0:0 (h264 (native) -> vp9 (libvpx-vp9))\nPress [q] to stop, [?] for help\n[libvpx-vp9 @ 000002ab62b80a80] v1.15.2-100-g40561f514\nOutput #0, webm, to 'C:\\Users\\Peter\\Desktop\\stuff\\MIUN\\quantitative_research\\video_compression\\compressed_videos\\BVI-HD\\vp9\\2\\TreeTrunk_1920x1080_50fps_vp9.webm':\n  Metadata:\n    major_brand     : isom\n    minor_version   : 512\n    compatible_brands: isomiso2avc1mp41\n    encoder         : Lavf62.3.100\n  Stream #0:0(und): Video: vp9, yuv420p(tv, progressive), 1920x1080, q=2-31, 2000 kb/s, 50 fps, 1k tbn (default)\n    Metadata:\n      encoder         : Lavc62.11.100 libvpx-vp9\n      handler_name    : VideoHandler\n      vendor_id       : [0][0][0][0]\n    Side data:\n      cpb: bitrate max/min/avg: 0/0/0 buffer size: 2000000 vbv_delay: N/A\nframe=    0 fps=0.0 q=0.0 size=       0KiB time=N/A bitrate=N/A speed=N/A elapsed=0:00:00.51    \nframe=    0 fps=0.0 q=0.0 size=       0KiB time=N/A bitrate=N/A speed=N/A elapsed=0:00:01.08    \nframe=    5 fps=2.9 q=49.0 size=       1KiB time=00:00:00.10 bitrate=  50.7kbits/s speed=0.0588x elapsed=0:00:01.69    \nframe=   11 fps=5.0 q=43.0 size=       1KiB time=00:00:00.20 bitrate=  25.4kbits/s speed=0.0901x elapsed=0:00:02.21    \nframe=   14 fps=5.1 q=40.0 size=       1KiB time=00:00:00.28 bitrate=  18.1kbits/s speed=0.102x elapsed=0:00:02.75    \nframe=   17 fps=5.1 q=39.0 size=       1KiB time=00:00:00.34 bitrate=  14.9kbits/s speed=0.103x elapsed=0:00:03.31    \nframe=   20 fps=5.2 q=40.0 size=       1KiB time=00:00:00.40 bitrate=  12.7kbits/s speed=0.104x elapsed=0:00:03.82    \nframe=   23 fps=5.3 q=32.0 size=       1KiB time=00:00:00.46 bitrate=  11.0kbits/s speed=0.106x elapsed=0:00:04.35    \nframe=   27 fps=5.5 q=38.0 size=       1KiB time=00:00:00.54 bitrate=   9.4kbits/s speed=0.11x elapsed=0:00:04.91    \nframe=   31 fps=5.6 q=39.0 size=       1KiB time=00:00:00.62 bitrate=   8.2kbits/s speed=0.113x elapsed=0:00:05.48    \nframe=   34 fps=5.6 q=31.0 size=       1KiB time=00:00:00.68 bitrate=   7.5kbits/s speed=0.112x elapsed=0:00:06.05    \nframe=   38 fps=5.8 q=36.0 size=       1KiB time=00:00:00.76 bitrate=   6.7kbits/s speed=0.115x elapsed=0:00:06.58    \nframe=   42 fps=5.9 q=36.0 size=       1KiB time=00:00:00.84 bitrate=   6.0kbits/s speed=0.118x elapsed=0:00:07.13    \nframe=   44 fps=5.7 q=37.0 size=       1KiB time=00:00:00.88 bitrate=   5.8kbits/s speed=0.115x elapsed=0:00:07.66    \nframe=   49 fps=6.0 q=35.0 size=       1KiB time=00:00:00.98 bitrate=   5.2kbits/s speed=0.12x elapsed=0:00:08.18    \nframe=   53 fps=6.1 q=36.0 size=       1KiB time=00:00:01.06 bitrate=   4.8kbits/s speed=0.122x elapsed=0:00:08.72    \nframe=   57 fps=6.2 q=36.0 size=       1KiB time=00:00:01.12 bitrate=   4.5kbits/s speed=0.121x elapsed=0:00:09.24    \nframe=   62 fps=6.3 q=35.0 size=       1KiB time=00:00:01.24 bitrate=   4.1kbits/s speed=0.126x elapsed=0:00:09.87    \nframe=   66 fps=6.3 q=36.0 size=       1KiB time=00:00:01.32 bitrate=   3.8kbits/s speed=0.126x elapsed=0:00:10.46    \nframe=   69 fps=6.3 q=35.0 size=       1KiB time=00:00:01.38 bitrate=   3.7kbits/s speed=0.125x elapsed=0:00:10.99    \nframe=   73 fps=6.3 q=35.0 size=       1KiB time=00:00:01.46 bitrate=   3.5kbits/s speed=0.127x elapsed=0:00:11.50    \nframe=   77 fps=6.4 q=35.0 size=       1KiB time=00:00:01.54 bitrate=   3.3kbits/s speed=0.128x elapsed=0:00:12.03    \nframe=   81 fps=6.4 q=34.0 size=       1KiB time=00:00:01.62 bitrate=   3.1kbits/s speed=0.129x elapsed=0:00:12.56    \nframe=   85 fps=6.5 q=35.0 size=       1KiB time=00:00:01.70 bitrate=   3.0kbits/s speed=0.129x elapsed=0:00:13.12    \nframe=   88 fps=6.4 q=35.0 size=       1KiB time=00:00:01.76 bitrate=   2.9kbits/s speed=0.129x elapsed=0:00:13.66    \nframe=   92 fps=6.5 q=34.0 size=       1KiB time=00:00:01.84 bitrate=   2.8kbits/s speed=0.129x elapsed=0:00:14.24    \nframe=   96 fps=6.5 q=34.0 size=       1KiB time=00:00:01.92 bitrate=   2.6kbits/s speed=0.129x elapsed=0:00:14.84    \nframe=   99 fps=6.4 q=35.0 size=       1KiB time=00:00:01.98 bitrate=   2.6kbits/s speed=0.129x elapsed=0:00:15.39    \nframe=  103 fps=6.4 q=33.0 size=       1KiB time=00:00:02.06 bitrate=   2.5kbits/s speed=0.129x elapsed=0:00:15.97    \nframe=  107 fps=6.5 q=35.0 size=       1KiB time=00:00:02.14 bitrate=   2.4kbits/s speed=0.129x elapsed=0:00:16.53    \nframe=  110 fps=6.4 q=35.0 size=       1KiB time=00:00:02.20 bitrate=   2.3kbits/s speed=0.129x elapsed=0:00:17.08    \nframe=  113 fps=6.4 q=35.0 size=       1KiB time=00:00:02.26 bitrate=   2.2kbits/s speed=0.128x elapsed=0:00:17.66    \nframe=  117 fps=6.4 q=35.0 size=       1KiB time=00:00:02.34 bitrate=   2.2kbits/s speed=0.129x elapsed=0:00:18.19    \nframe=  120 fps=6.4 q=27.0 size=       1KiB time=00:00:02.40 bitrate=   2.1kbits/s speed=0.128x elapsed=0:00:18.71    \nframe=  124 fps=6.5 q=34.0 size=       1KiB time=00:00:02.48 bitrate=   2.0kbits/s speed=0.129x elapsed=0:00:19.22    \nframe=  128 fps=6.5 q=35.0 size=       1KiB time=00:00:02.56 bitrate=   2.0kbits/s speed=0.129x elapsed=0:00:19.79    \nframe=  130 fps=6.4 q=35.0 size=    1280KiB time=00:00:02.60 bitrate=4033.0kbits/s speed=0.128x elapsed=0:00:20.37    \nframe=  134 fps=6.4 q=34.0 size=    1280KiB time=00:00:02.68 bitrate=3912.6kbits/s speed=0.128x elapsed=0:00:20.94    \nframe=  138 fps=6.4 q=35.0 size=    1280KiB time=00:00:02.76 bitrate=3799.2kbits/s speed=0.129x elapsed=0:00:21.46    \nframe=  141 fps=6.4 q=35.0 size=    1280KiB time=00:00:02.82 bitrate=3718.4kbits/s speed=0.128x elapsed=0:00:22.01    \nframe=  144 fps=6.4 q=34.0 size=    1280KiB time=00:00:02.88 bitrate=3640.9kbits/s speed=0.128x elapsed=0:00:22.55    \nframe=  148 fps=6.4 q=35.0 size=    1280KiB time=00:00:02.96 bitrate=3542.5kbits/s speed=0.128x elapsed=0:00:23.07    \nframe=  151 fps=6.4 q=26.0 size=    1280KiB time=00:00:03.00 bitrate=3495.3kbits/s speed=0.127x elapsed=0:00:23.61    \nframe=  155 fps=6.4 q=33.0 size=    1280KiB time=00:00:03.10 bitrate=3382.5kbits/s speed=0.128x elapsed=0:00:24.19    \nframe=  158 fps=6.4 q=34.0 size=    1280KiB time=00:00:03.16 bitrate=3318.3kbits/s speed=0.128x elapsed=0:00:24.72    \nframe=  161 fps=6.4 q=35.0 size=    1280KiB time=00:00:03.22 bitrate=3256.4kbits/s speed=0.127x elapsed=0:00:25.31    \nframe=  165 fps=6.4 q=33.0 size=    1280KiB time=00:00:03.30 bitrate=3177.5kbits/s speed=0.128x elapsed=0:00:25.84    \nframe=  169 fps=6.4 q=34.0 size=    1280KiB time=00:00:03.36 bitrate=3120.8kbits/s speed=0.127x elapsed=0:00:26.38    \nframe=  172 fps=6.4 q=35.0 size=    1280KiB time=00:00:03.44 bitrate=3048.2kbits/s speed=0.128x elapsed=0:00:26.96    \nframe=  175 fps=6.4 q=34.0 size=    1280KiB time=00:00:03.50 bitrate=2995.9kbits/s speed=0.127x elapsed=0:00:27.49    \nframe=  179 fps=6.4 q=35.0 size=    1280KiB time=00:00:03.58 bitrate=2929.0kbits/s speed=0.128x elapsed=0:00:28.02    \nframe=  183 fps=6.4 q=36.0 size=    1280KiB time=00:00:03.66 bitrate=2865.0kbits/s speed=0.128x elapsed=0:00:28.53    \nframe=  186 fps=6.4 q=35.0 size=    1280KiB time=00:00:03.72 bitrate=2818.8kbits/s speed=0.128x elapsed=0:00:29.08    \nframe=  190 fps=6.4 q=36.0 size=    1280KiB time=00:00:03.80 bitrate=2759.4kbits/s speed=0.128x elapsed=0:00:29.61    \nframe=  194 fps=6.4 q=36.0 size=    1280KiB time=00:00:03.88 bitrate=2702.5kbits/s speed=0.129x elapsed=0:00:30.16    \nframe=  198 fps=6.4 q=35.0 size=    1280KiB time=00:00:03.94 bitrate=2661.4kbits/s speed=0.128x elapsed=0:00:30.74    \nframe=  201 fps=6.4 q=37.0 size=    1280KiB time=00:00:04.02 bitrate=2608.4kbits/s speed=0.129x elapsed=0:00:31.27    \nframe=  204 fps=6.4 q=39.0 size=    1280KiB time=00:00:04.08 bitrate=2570.0kbits/s speed=0.128x elapsed=0:00:31.78    \nframe=  208 fps=6.4 q=39.0 size=    1280KiB time=00:00:04.14 bitrate=2532.8kbits/s speed=0.128x elapsed=0:00:32.29    \nframe=  212 fps=6.4 q=39.0 size=    1280KiB time=00:00:04.24 bitrate=2473.1kbits/s speed=0.129x elapsed=0:00:32.91    \nframe=  216 fps=6.4 q=39.0 size=    1280KiB time=00:00:04.32 bitrate=2427.3kbits/s speed=0.129x elapsed=0:00:33.52    \nframe=  219 fps=6.4 q=38.0 size=    1280KiB time=00:00:04.38 bitrate=2394.0kbits/s speed=0.128x elapsed=0:00:34.10    \nframe=  224 fps=6.5 q=40.0 size=    1280KiB time=00:00:04.46 bitrate=2351.1kbits/s speed=0.129x elapsed=0:00:34.63    \nframe=  226 fps=6.4 q=40.0 size=    1280KiB time=00:00:04.52 bitrate=2319.9kbits/s speed=0.128x elapsed=0:00:35.21    \nframe=  226 fps=6.3 q=40.0 size=    1280KiB time=00:00:04.52 bitrate=2319.9kbits/s speed=0.126x elapsed=0:00:35.79    \nframe=  226 fps=6.2 q=40.0 size=    1280KiB time=00:00:04.52 bitrate=2319.9kbits/s speed=0.124x elapsed=0:00:36.36    \nframe=  226 fps=6.1 q=40.0 size=    1280KiB time=00:00:04.52 bitrate=2319.9kbits/s speed=0.122x elapsed=0:00:36.90    \nframe=  226 fps=6.0 q=40.0 size=    1280KiB time=00:00:04.52 bitrate=2319.9kbits/s speed=0.121x elapsed=0:00:37.45    \nframe=  226 fps=5.9 q=40.0 size=    1280KiB time=00:00:04.52 bitrate=2319.9kbits/s speed=0.119x elapsed=0:00:38.00    \nframe=  226 fps=5.9 q=40.0 size=    1280KiB time=00:00:04.52 bitrate=2319.9kbits/s speed=0.117x elapsed=0:00:38.58    \n[out#0/webm @ 000002ab62d7f040] video:2765KiB audio:0KiB subtitle:0KiB other streams:0KiB global headers:0KiB muxing overhead: 0.087205%\nframe=  250 fps=6.5 q=41.0 Lsize=    2767KiB time=00:00:05.00 bitrate=4534.0kbits/s speed=0.129x elapsed=0:00:38.68    \n",
  "seconds": 39.15299081802368,
  "probe_out": {}
}